<svg width="20" height="20" viewBox="0 0 20 20" fill="none" xmlns="http://www.w3.org/2000/svg">
<g clip-path="url(#clip0_11330_113)">
<path d="M1.66663 10.1699C1.66663 8.2629 1.66663 7.30939 2.09929 6.51894C2.53196 5.7285 3.32241 5.23792 4.90332 4.25676L6.56999 3.22238C8.24112 2.18523 9.07668 1.66666 9.99996 1.66666C10.9232 1.66666 11.7588 2.18523 13.4299 3.22238L15.0966 4.25676C16.6775 5.23792 17.468 5.7285 17.9006 6.51894C18.3333 7.30939 18.3333 8.2629 18.3333 10.1699V11.4375C18.3333 14.6882 18.3333 16.3136 17.357 17.3234C16.3807 18.3333 14.8093 18.3333 11.6666 18.3333H8.33329C5.1906 18.3333 3.61925 18.3333 2.64294 17.3234C1.66663 16.3136 1.66663 14.6882 1.66663 11.4375V10.1699Z" stroke="white" stroke-width="1.5"/>
<path d="M10 12.5L10 15" stroke="white" stroke-width="1.5" stroke-linecap="round"/>
</g>
<defs>
<clipPath id="clip0_11330_113">
<rect width="20" height="20" fill="white"/>
</clipPath>
</defs>
</svg>
