<svg width="55" height="55" viewBox="0 0 55 55" fill="none" xmlns="http://www.w3.org/2000/svg">
<path d="M26.5508 0.864465C26.8536 -0.0494533 28.1464 -0.049451 28.4492 0.864467L34.6846 19.6807C34.784 19.9807 35.0193 20.216 35.3193 20.3154L54.1355 26.5508C55.0495 26.8536 55.0494 28.1464 54.1355 28.4492L35.3193 34.6846C35.0193 34.784 34.784 35.0193 34.6846 35.3193L28.4492 54.1355C28.1464 55.0495 26.8536 55.0494 26.5508 54.1355L20.3154 35.3193C20.216 35.0193 19.9807 34.784 19.6807 34.6846L0.864465 28.4492C-0.0494533 28.1464 -0.049451 26.8536 0.864467 26.5508L19.6807 20.3154C19.9807 20.216 20.216 19.9807 20.3154 19.6807L26.5508 0.864465Z" fill="url(#paint0_linear_11330_1069)"/>
<defs>
<linearGradient id="paint0_linear_11330_1069" x1="56.765" y1="23.6624" x2="-1.7875" y2="24.106" gradientUnits="userSpaceOnUse">
<stop stop-color="#7A87FB"/>
<stop offset="1" stop-color="#FFD49C"/>
</linearGradient>
</defs>
</svg>
